<svg width="99" height="102" viewBox="0 0 99 102" fill="none" xmlns="http://www.w3.org/2000/svg">
<g clip-path="url(#clip0_111_17)">
<path d="M93.44 51.44C97.09 47.41 99.25 41.99 98.97 36.06C98.43 24.55 88.51 15.69 76.99 15.69H74.77V7.57C74.77 3.39 71.38 0 67.2 0H64.7V15.69H53.63V7.57C53.63 3.39 50.24 0 46.06 0H43.56V15.69H0C0 23.48 6.32 29.8 14.11 29.8H43.67H74.56C78.59 29.8 81.86 33.07 81.86 37.1C81.86 41.13 78.59 44.4 74.56 44.4H43.67H16.79C16.79 50.24 20.34 55.26 25.41 57.4C27.1 58.12 28.96 58.51 30.91 58.51H43.68H74.26C78.07 58.51 81.47 61.3 81.83 65.09C82.25 69.44 78.83 73.1 74.57 73.1H43.68H31.68C31.68 80.13 36.83 85.94 43.56 87.01V101.77H46.06C50.24 101.77 53.63 98.38 53.63 94.2V87.19H64.7V101.76H67.2C71.38 101.76 74.77 98.37 74.77 94.19V87.18H77.6C89.42 87.18 99 77.6 99 65.78C99 60.26 96.88 55.23 93.44 51.44Z" fill="url(#paint0_linear_111_17)"/>
</g>
<defs>
<linearGradient id="paint0_linear_111_17" x1="87.2569" y1="9.8969" x2="21.2473" y2="71.9059" gradientUnits="userSpaceOnUse">
<stop stop-color="#F4D03D"/>
<stop offset="1" stop-color="#F3AA3D"/>
</linearGradient>
<clipPath id="clip0_111_17">
<rect width="99" height="101.76" fill="white"/>
</clipPath>
</defs>
</svg>
