<svg width="234" height="58" viewBox="0 0 234 58" fill="none" xmlns="http://www.w3.org/2000/svg">
<path d="M78.97 47V13.475H93.145C95.455 13.475 97.435 13.865 99.085 14.645C100.735 15.425 101.995 16.55 102.865 18.02C103.735 19.46 104.17 21.215 104.17 23.285C104.17 24.755 103.765 26.165 102.955 27.515C102.145 28.835 100.81 29.945 98.95 30.845V27.425C100.72 28.115 102.085 28.94 103.045 29.9C104.005 30.86 104.665 31.91 105.025 33.05C105.385 34.16 105.565 35.33 105.565 36.56C105.565 39.86 104.47 42.425 102.28 44.255C100.09 46.085 97.045 47 93.145 47H78.97ZM85.945 40.925H93.955C95.365 40.925 96.49 40.52 97.33 39.71C98.17 38.9 98.59 37.85 98.59 36.56C98.59 35.24 98.17 34.175 97.33 33.365C96.49 32.555 95.365 32.15 93.955 32.15H85.945V40.925ZM85.945 26.075H93.64C94.72 26.075 95.575 25.775 96.205 25.175C96.865 24.545 97.195 23.72 97.195 22.7C97.195 21.68 96.865 20.87 96.205 20.27C95.575 19.64 94.72 19.325 93.64 19.325H85.945V26.075ZM109.544 47V22.43H116.294V47H109.544ZM109.544 20.225V13.475H116.294V20.225H109.544ZM133.069 47.27C130.099 47.27 127.789 46.475 126.139 44.885C124.519 43.265 123.709 41.015 123.709 38.135V28.28H119.569V22.43H119.794C121.054 22.43 122.014 22.115 122.674 21.485C123.364 20.855 123.709 19.91 123.709 18.65V16.85H130.459V22.43H136.219V28.28H130.459V37.685C130.459 38.525 130.609 39.23 130.909 39.8C131.209 40.34 131.674 40.745 132.304 41.015C132.934 41.285 133.714 41.42 134.644 41.42C134.854 41.42 135.094 41.405 135.364 41.375C135.634 41.345 135.919 41.315 136.219 41.285V47C135.769 47.06 135.259 47.12 134.689 47.18C134.119 47.24 133.579 47.27 133.069 47.27ZM152.234 47.54C149.774 47.54 147.554 46.985 145.574 45.875C143.624 44.735 142.064 43.19 140.894 41.24C139.754 39.29 139.184 37.1 139.184 34.67C139.184 32.24 139.754 30.065 140.894 28.145C142.034 26.195 143.594 24.665 145.574 23.555C147.554 22.445 149.774 21.89 152.234 21.89C154.064 21.89 155.759 22.205 157.319 22.835C158.879 23.465 160.214 24.35 161.324 25.49C162.434 26.6 163.229 27.92 163.709 29.45L157.859 31.97C157.439 30.74 156.719 29.765 155.699 29.045C154.709 28.325 153.554 27.965 152.234 27.965C151.064 27.965 150.014 28.25 149.084 28.82C148.184 29.39 147.464 30.185 146.924 31.205C146.414 32.225 146.159 33.395 146.159 34.715C146.159 36.035 146.414 37.205 146.924 38.225C147.464 39.245 148.184 40.04 149.084 40.61C150.014 41.18 151.064 41.465 152.234 41.465C153.584 41.465 154.754 41.105 155.744 40.385C156.734 39.665 157.439 38.69 157.859 37.46L163.709 40.025C163.259 41.465 162.479 42.755 161.369 43.895C160.259 45.035 158.924 45.935 157.364 46.595C155.804 47.225 154.094 47.54 152.234 47.54ZM179.879 47.54C177.449 47.54 175.229 46.985 173.219 45.875C171.239 44.765 169.649 43.25 168.449 41.33C167.279 39.38 166.694 37.175 166.694 34.715C166.694 32.225 167.279 30.02 168.449 28.1C169.649 26.18 171.239 24.665 173.219 23.555C175.229 22.445 177.449 21.89 179.879 21.89C182.309 21.89 184.514 22.445 186.494 23.555C188.474 24.665 190.049 26.18 191.219 28.1C192.419 30.02 193.019 32.225 193.019 34.715C193.019 37.175 192.419 39.38 191.219 41.33C190.049 43.25 188.474 44.765 186.494 45.875C184.514 46.985 182.309 47.54 179.879 47.54ZM179.879 41.465C181.109 41.465 182.174 41.18 183.074 40.61C184.004 40.04 184.724 39.245 185.234 38.225C185.774 37.205 186.044 36.035 186.044 34.715C186.044 33.395 185.774 32.24 185.234 31.25C184.724 30.23 184.004 29.435 183.074 28.865C182.174 28.265 181.109 27.965 179.879 27.965C178.649 27.965 177.569 28.265 176.639 28.865C175.709 29.435 174.974 30.23 174.434 31.25C173.924 32.24 173.669 33.395 173.669 34.715C173.669 36.035 173.924 37.205 174.434 38.225C174.974 39.245 175.709 40.04 176.639 40.61C177.569 41.18 178.649 41.465 179.879 41.465ZM196.996 47V22.43H203.746V47H196.996ZM196.996 20.225V13.475H203.746V20.225H196.996ZM208.685 47V22.43H214.985V27.29L214.625 26.21C215.195 24.74 216.11 23.66 217.37 22.97C218.66 22.25 220.16 21.89 221.87 21.89C223.73 21.89 225.35 22.28 226.73 23.06C228.14 23.84 229.235 24.935 230.015 26.345C230.795 27.725 231.185 29.345 231.185 31.205V47H224.435V32.645C224.435 31.685 224.24 30.86 223.85 30.17C223.49 29.48 222.965 28.94 222.275 28.55C221.615 28.16 220.835 27.965 219.935 27.965C219.065 27.965 218.285 28.16 217.595 28.55C216.905 28.94 216.365 29.48 215.975 30.17C215.615 30.86 215.435 31.685 215.435 32.645V47H208.685Z" fill="white"/>
<path d="M0 24C0 18.4772 4.47715 14 10 14H51V34C51 47.2548 40.2548 58 27 58H0V24Z" fill="white"/>
<path d="M10.7239 52.8354H0V57.9999H10.7239V52.8354Z" fill="url(#paint0_linear_118_87)"/>
<path d="M19.5024 52.8354H15.069V57.9999H19.5024V52.8354Z" fill="url(#paint1_linear_118_87)"/>
<path d="M27.1724 46.7043H0V40.2664H27.0368C28.7347 40.2664 30.244 41.5221 30.3854 43.2141C30.4621 44.2105 30.0966 45.1184 29.4481 45.7551C28.8644 46.3446 28.0685 46.7043 27.1724 46.7043Z" fill="url(#paint2_linear_118_87)"/>
<path d="M27.1724 34.135H0V27.6912H27.0368C28.7347 27.6912 30.244 28.9469 30.3854 30.6389C30.4621 31.6353 30.0966 32.5432 29.4481 33.1858C28.8644 33.7694 28.0685 34.135 27.1724 34.135Z" fill="url(#paint3_linear_118_87)"/>
<path d="M58 0V38.0909C58 49.086 49.086 58 38.085 58H23.8414V52.8355H27.7914C30.3678 52.8355 32.7083 51.792 34.4062 50.0941C36.0923 48.3962 37.1476 46.0675 37.1476 43.4912C37.1476 41.0622 36.2279 38.8514 34.7186 37.1948C36.222 35.5263 37.1476 33.3273 37.1476 30.9101C37.1476 25.7339 32.9618 21.554 27.7973 21.554H23.8473V16.4013H19.5023V21.554H15.0689V16.4013H10.7239V21.554H0V19.915C0 8.91401 8.91401 0 19.915 0H58Z" fill="url(#paint4_linear_118_87)"/>
<defs>
<linearGradient id="paint0_linear_118_87" x1="-8.72299" y1="70.653" x2="61.097" y2="-4.87551" gradientUnits="userSpaceOnUse">
<stop stop-color="#E57100"/>
<stop offset="1" stop-color="#F3AA3D"/>
</linearGradient>
<linearGradient id="paint1_linear_118_87" x1="-2.29466" y1="76.5956" x2="67.5254" y2="1.06696" gradientUnits="userSpaceOnUse">
<stop stop-color="#E57100"/>
<stop offset="1" stop-color="#E57100"/>
</linearGradient>
<linearGradient id="paint2_linear_118_87" x1="-9.8554" y1="69.6065" x2="59.9649" y2="-5.92235" gradientUnits="userSpaceOnUse">
<stop stop-color="#E57100"/>
<stop offset="1" stop-color="#F3AA3D"/>
</linearGradient>
<linearGradient id="paint3_linear_118_87" x1="-16.1246" y1="63.811" x2="53.6957" y2="-11.7179" gradientUnits="userSpaceOnUse">
<stop stop-color="#E57100"/>
<stop offset="1" stop-color="#F3AA3D"/>
</linearGradient>
<linearGradient id="paint4_linear_118_87" x1="-4.22926" y1="59.2453" x2="50.2667" y2="9.6421" gradientUnits="userSpaceOnUse">
<stop stop-color="#E57100"/>
<stop offset="1" stop-color="#F3AA3D"/>
</linearGradient>
</defs>
</svg>
